<svg xmlns="http://www.w3.org/2000/svg" version="1.1" xmlns:xlink="http://www.w3.org/1999/xlink" xmlns:svgjs="http://svgjs.com/svgjs" height="78.915380859375" width="329.38455028533934"><defs id="SvgjsDefs1489"></defs><g id="SvgjsG1490" rel="mainfill" name="main_text" xmlns:name="main_text" transform="translate(119.99455757141112,-188.94231109619142)" fill="#242424"><path d="M3.85 235.97L3.85 222.29Q3.85 220.89 3.45 220.35Q3.06 219.80 1.91 219.47L1.21 219.29L1.57 218.26L8.21 218.26L8.60 218.74L8.21 219.29Q7.45 220.29 7.15 221.41Q6.84 222.53 6.84 224.34L6.84 236.18Q6.84 237.49 7.21 238.00Q7.57 238.52 8.69 238.85L9.33 239.03L8.99 240L1.57 240L1.21 238.97L1.91 238.79Q3.06 238.46 3.45 237.91Q3.85 237.37 3.85 235.97ZM16.87 225.83L16.87 229.07L17.05 229.07Q17.56 227.04 18.64 225.80Q19.71 224.56 20.98 224.56Q22.26 224.56 23.09 225.39Q23.92 226.22 23.92 227.51Q23.92 228.80 23.07 229.58Q22.23 230.37 20.95 230.37Q20.38 230.37 20.38 230.04Q20.38 230.01 20.80 229.31Q21.23 228.61 21.23 228.01Q21.23 227.40 20.94 227.09Q20.65 226.77 20.18 226.77Q19.71 226.77 19.17 227.22Q18.62 227.68 18.08 228.61Q16.87 230.70 16.87 235.28Q16.87 237.73 17.84 239.06L18.20 239.55L17.84 240L12.54 240L12.20 239.06L12.84 238.91Q13.60 238.73 13.85 238.26Q14.11 237.79 14.11 236.64L14.11 228.13Q14.11 227.46 13.51 227.46L12.17 227.46L11.90 226.68Q12.78 225.89 13.91 225.37Q15.05 224.86 15.69 224.86Q16.87 224.86 16.87 225.83ZM32.25 240.42Q29.07 240.42 27.18 238.30Q25.28 236.18 25.28 232.60Q25.28 229.01 27.43 226.78Q29.58 224.56 33.13 224.56Q35.61 224.56 36.94 225.86Q38.28 227.16 38.28 229.10Q38.28 231.04 36.72 232.58Q35.16 234.13 32.49 234.13Q31.52 234.13 30.34 233.76Q29.16 233.40 29.16 232.70Q29.16 232.46 29.30 232.25Q29.43 232.04 29.54 232.04Q29.65 232.04 30.24 232.23Q30.83 232.43 31.55 232.43Q33.37 232.43 34.38 231.40Q35.40 230.37 35.40 229.08Q35.40 227.80 34.64 226.93Q33.88 226.07 32.52 226.07Q30.58 226.07 29.49 227.78Q28.40 229.49 28.40 232.43Q28.40 235.37 29.55 236.90Q30.71 238.43 33.13 238.43Q35.55 238.43 37.31 236.70Q37.43 236.58 37.62 236.58Q37.82 236.58 38.09 236.87Q38.37 237.15 38.37 237.38Q38.37 237.61 38.25 237.73Q35.91 240.42 32.25 240.42ZM46.12 235.16Q46.12 237.70 47.09 239.06L47.45 239.55L47.09 240L41.79 240L41.45 239.06L42.09 238.91Q42.85 238.73 43.11 238.26Q43.36 237.79 43.36 236.64L43.36 228.13Q43.36 227.46 42.76 227.46L41.42 227.46L41.15 226.68Q42.03 225.89 43.17 225.37Q44.30 224.86 44.94 224.86Q46.12 224.86 46.12 225.83L46.12 229.07Q46.91 227.10 48.48 225.83Q50.05 224.56 51.98 224.56Q53.90 224.56 54.87 225.86Q55.84 227.16 55.84 230.01L55.84 237.34Q55.84 238.36 56.75 238.36Q57.44 238.36 58.26 237.73L58.84 238.52Q57.11 240.42 55.44 240.42Q54.20 240.42 53.66 239.67Q53.11 238.91 53.11 237.21L53.11 230.01Q53.11 226.92 50.51 226.92Q48.54 226.92 47.33 229.20Q46.12 231.49 46.12 235.16ZM66.22 240.42Q63.95 240.42 62.38 238.50Q60.80 236.58 60.80 232.85Q60.80 229.13 62.92 226.84Q65.04 224.56 68.65 224.56Q69.68 224.56 71.75 224.90Q73.83 225.25 74.70 225.31L75.04 225.71L74.67 226.25Q74.28 226.86 74.28 227.43L74.28 237.34Q74.28 238.27 75.19 238.27Q75.91 238.27 76.70 237.73L77.28 238.52Q75.55 240.42 73.92 240.42Q72.67 240.42 72.13 239.67Q71.58 238.91 71.58 237.21Q69.28 240.42 66.22 240.42M68.62 226.22Q66.41 226.22 65.20 227.87Q63.98 229.52 63.98 232.44Q63.98 235.37 64.97 236.73Q65.95 238.09 67.44 238.09Q69.98 238.09 71.58 235.34L71.58 227.16Q70.19 226.22 68.62 226.22ZM90.54 235.28Q90.54 235.28 90.54 236.00Q90.54 236.73 91.75 237.73Q92.96 238.73 94.81 238.73Q96.66 238.73 97.73 237.82Q98.81 236.91 98.81 235.52Q98.81 234.13 98.20 233.20Q97.60 232.28 96.64 231.70Q95.69 231.13 94.52 230.60Q93.36 230.07 92.19 229.49Q91.03 228.92 90.07 228.21Q89.12 227.49 88.51 226.34Q87.91 225.19 87.91 223.71Q87.91 221.29 89.62 219.56Q91.33 217.83 94.42 217.83Q97.51 217.83 99.41 219.08Q101.32 220.32 101.32 222.29Q101.32 223.83 100.40 224.83Q99.47 225.83 98.08 225.83Q97.44 225.83 97.44 225.47Q97.44 225.37 97.69 225.04Q98.35 223.98 98.35 222.63Q98.35 221.29 97.29 220.41Q96.23 219.53 94.48 219.53Q92.72 219.53 91.75 220.54Q90.78 221.56 90.78 222.82Q90.78 224.07 91.39 224.90Q91.99 225.74 92.98 226.30Q93.96 226.86 95.14 227.39Q96.32 227.92 97.51 228.52Q98.69 229.13 99.67 229.87Q100.65 230.61 101.26 231.81Q101.87 233.01 101.87 234.52Q101.87 237.21 100.06 238.82Q98.26 240.42 94.93 240.42Q91.60 240.42 89.51 239.06Q87.42 237.70 87.42 235.55Q87.42 234.00 88.41 233.01Q89.39 232.01 90.87 232.01Q91.51 232.01 91.51 232.37Q91.51 232.43 91.27 232.79Q90.54 233.82 90.54 235.28ZM110.16 240.42Q107.89 240.42 106.32 238.50Q104.74 236.58 104.74 232.85Q104.74 229.13 106.86 226.84Q108.98 224.56 112.59 224.56Q113.61 224.56 115.69 224.90Q117.76 225.25 118.64 225.31L118.97 225.71L118.61 226.25Q118.22 226.86 118.22 227.43L118.22 237.34Q118.22 238.27 119.13 238.27Q119.85 238.27 120.64 237.73L121.22 238.52Q119.49 240.42 117.85 240.42Q116.61 240.42 116.07 239.67Q115.52 238.91 115.52 237.21Q113.22 240.42 110.16 240.42M112.56 226.22Q110.34 226.22 109.13 227.87Q107.92 229.52 107.92 232.44Q107.92 235.37 108.91 236.73Q109.89 238.09 111.37 238.09Q113.92 238.09 115.52 235.34L115.52 227.16Q114.13 226.22 112.56 226.22ZM130.12 238.46Q132.00 238.46 132.98 236.31Q133.96 234.16 133.96 231.07Q133.96 227.98 132.63 225.86L132.33 225.37L132.69 224.98L136.30 224.56Q136.45 226.43 136.45 227.77Q136.45 233.73 134.51 237.08Q132.57 240.42 129.79 240.42Q127.48 240.42 126.41 239.08Q125.33 237.73 124.82 234.25L123.88 227.83Q123.82 227.43 123.70 227.30Q123.58 227.16 123.27 227.16L121.94 227.16L121.67 226.37Q122.46 225.59 123.55 225.07Q124.64 224.56 125.47 224.56Q126.30 224.56 126.45 225.53L127.82 234.97Q128.09 236.85 128.60 237.65Q129.12 238.46 130.12 238.46ZM151.59 236.88Q151.68 236.79 151.89 236.79Q152.10 236.79 152.36 237.06Q152.62 237.34 152.62 237.58Q152.62 237.82 152.53 237.91Q150.35 240.42 147.12 240.42Q143.90 240.42 141.84 238.18Q139.78 235.94 139.78 232.41Q139.78 228.89 141.78 226.72Q143.78 224.56 147.11 224.56Q149.44 224.56 150.94 225.69Q152.44 226.83 152.44 228.61Q152.44 229.92 151.60 230.75Q150.77 231.58 149.47 231.58Q148.89 231.58 148.89 231.25Q148.89 231.19 149.07 230.92Q149.62 230.04 149.62 228.80Q149.62 227.55 148.85 226.84Q148.07 226.13 146.77 226.13Q145.05 226.13 143.99 227.83Q142.93 229.52 142.93 232.31Q142.93 235.09 144.18 236.74Q145.44 238.40 147.61 238.40Q149.77 238.40 151.59 236.88ZM157.10 236.64L157.10 219.59Q157.10 218.92 156.49 218.92L155.16 218.92L154.89 218.14Q155.77 217.35 156.89 216.83Q158.01 216.32 158.67 216.32Q159.85 216.32 159.85 217.29L159.85 229.07Q160.64 227.10 162.22 225.83Q163.79 224.56 165.76 224.56Q167.73 224.56 168.65 225.86Q169.57 227.16 169.57 230.07L169.57 237.40Q169.57 238.43 170.48 238.43Q171.21 238.43 172.00 237.79L172.57 238.58Q170.85 240.48 169.18 240.48Q167.94 240.48 167.39 239.73Q166.85 238.97 166.85 237.27L166.85 230.07Q166.85 228.46 166.26 227.69Q165.67 226.92 164.25 226.92Q162.28 226.92 161.07 229.20Q159.85 231.49 159.85 235.16Q159.85 237.70 160.82 239.06L161.19 239.55L160.82 240L155.52 240L155.19 239.06L155.83 238.91Q156.58 238.73 156.84 238.26Q157.10 237.79 157.10 236.64ZM188.77 237.34Q188.77 238.27 189.65 238.27Q190.35 238.27 191.13 237.73L191.71 238.52Q191.01 239.36 190.09 239.89Q189.17 240.42 188.38 240.42Q186.05 240.42 186.05 237.52Q185.35 238.85 183.97 239.64Q182.60 240.42 180.67 240.42Q178.75 240.42 177.52 239.11Q176.30 237.79 176.30 235.40L176.30 227.83Q176.30 227.16 175.69 227.16L174.36 227.16L174.09 226.37Q174.87 225.59 176.01 225.07Q177.14 224.56 177.84 224.56Q179.05 224.56 179.05 225.53L179.05 234.70Q179.05 238.40 181.96 238.40Q183.99 238.40 185.12 236.64Q186.26 234.88 186.26 232.22Q186.26 229.55 186.00 228.30Q185.74 227.04 185.08 225.89L184.72 225.40L185.08 224.95L188.77 224.56L188.77 237.34ZM199.98 232.85Q199.40 232.70 199.40 232.17Q199.40 231.64 199.86 231.64Q199.89 231.64 200.48 231.78Q201.07 231.91 201.79 231.91Q203.43 231.91 204.35 230.96Q205.28 230.01 205.28 228.95Q205.28 227.89 204.75 227.27Q204.22 226.65 203.25 226.65Q201.01 226.65 199.67 228.99Q198.34 231.34 198.34 235.16Q198.34 237.79 199.31 239.06L199.67 239.55L199.31 240L194.01 240L193.68 239.06L194.31 238.91Q195.07 238.73 195.33 238.26Q195.59 237.79 195.59 236.64L195.59 219.59Q195.59 218.92 194.98 218.92L193.65 218.92L193.38 218.14Q194.25 217.35 195.37 216.83Q196.49 216.32 197.16 216.32Q198.34 216.32 198.34 217.29L198.34 229.07Q199.10 227.07 200.63 225.81Q202.16 224.56 203.99 224.56Q205.82 224.56 206.91 225.71Q208.00 226.86 208.00 228.52Q208.00 230.19 206.79 231.57Q205.58 232.94 203.52 233.19L205.88 237.67Q206.31 238.52 207.14 238.52Q207.97 238.52 208.76 237.73L209.39 238.52Q208.00 240.42 206.15 240.42Q204.85 240.42 204.14 239.71Q203.43 239.00 202.49 237.21L200.25 232.94L199.98 232.85Z" fill="#242424" style="fill: rgb(36, 36, 36);"></path></g><g id="SvgjsG1491" rel="mainfill" name="symbol" xmlns:name="symbol_mainfill" transform="translate(-5.898008507490165,-19.543816113471987) scale(23.6)" fill="#242424"><g fill="#242424"><circle fill="" cx="1.473" cy="2.955" r="0.455"></circle><g fill="#242424"><ellipse transform="matrix(0.9287 0.3708 -0.3708 0.9287 1.0345 -0.3766)" fill="" cx="1.497" cy="2.502" rx="0.069" ry="0.097"></ellipse><g fill="#242424"><path fill="#242424" d="M1.51,2.49c-0.002,0-0.005,0-0.007-0.001c-0.01-0.004-0.015-0.016-0.012-0.025l0.198-0.499     c0.004-0.011,0.015-0.016,0.026-0.011c0.01,0.004,0.015,0.015,0.011,0.026L1.528,2.478C1.525,2.485,1.517,2.49,1.51,2.49z" style="fill: rgb(36, 36, 36);"></path></g><g fill="#242424"><path fill="#242424" d="M1.707,1.992c-0.006,0-0.012-0.003-0.016-0.008L1.547,1.797C1.541,1.788,1.542,1.776,1.551,1.769     C1.56,1.762,1.572,1.764,1.579,1.773l0.137,0.178l0.222-0.036C1.948,1.913,1.958,1.92,1.959,1.931     c0.002,0.011-0.005,0.021-0.016,0.022L1.71,1.992C1.709,1.992,1.708,1.992,1.707,1.992z" style="fill: rgb(36, 36, 36);"></path></g><g fill="#242424"><path fill="#242424" d="M1.707,1.992c-0.002,0-0.005,0-0.007-0.001C1.689,1.986,1.685,1.975,1.689,1.965l0.065-0.167     C1.758,1.788,1.77,1.783,1.78,1.788c0.01,0.003,0.015,0.015,0.011,0.025L1.726,1.979C1.723,1.987,1.715,1.992,1.707,1.992z" style="fill: rgb(36, 36, 36);"></path></g></g><ellipse transform="matrix(0.9143 0.405 -0.405 0.9143 0.996 -0.9765)" fill="" cx="2.806" cy="1.865" rx="0.061" ry="0.086"></ellipse><g fill="#242424"><path fill="#242424" d="M2.818,1.855c-0.002,0-0.005,0-0.007-0.001C2.802,1.85,2.798,1.84,2.802,1.831l0.192-0.433    c0.004-0.009,0.015-0.013,0.023-0.009S3.03,1.403,3.026,1.412L2.834,1.845C2.831,1.852,2.825,1.855,2.818,1.855z" style="fill: rgb(36, 36, 36);"></path></g><g fill="#242424"><path fill="#242424" d="M3.01,1.422c-0.006,0-0.011-0.003-0.014-0.008l-0.121-0.17C2.869,1.237,2.872,1.225,2.879,1.22    c0.008-0.006,0.019-0.004,0.024,0.004l0.114,0.162l0.197-0.024c0.009-0.001,0.018,0.006,0.02,0.015    c0.001,0.01-0.005,0.019-0.015,0.02L3.012,1.422C3.011,1.422,3.011,1.422,3.01,1.422z" style="fill: rgb(36, 36, 36);"></path></g><g fill="#242424"><path fill="#242424" d="M3.01,1.422c-0.002,0-0.005-0.001-0.007-0.002C2.994,1.417,2.99,1.407,2.994,1.398l0.064-0.145    C3.062,1.244,3.073,1.24,3.082,1.244C3.09,1.248,3.094,1.258,3.09,1.267L3.026,1.412C3.023,1.418,3.017,1.422,3.01,1.422z" style="fill: rgb(36, 36, 36);"></path></g><ellipse fill="" cx="3.733" cy="1.617" rx="0.061" ry="0.086"></ellipse><g fill="#242424"><path fill="#242424" d="M3.732,1.604c-0.01,0-0.018-0.007-0.018-0.017L3.706,1.113c0-0.01,0.008-0.018,0.017-0.018    c0.01,0,0.018,0.007,0.018,0.017L3.75,1.586C3.75,1.596,3.742,1.604,3.732,1.604L3.732,1.604z" style="fill: rgb(36, 36, 36);"></path></g><g fill="#242424"><path fill="#242424" d="M3.723,1.13c-0.003,0-0.006-0.001-0.009-0.002L3.533,1.025C3.525,1.02,3.522,1.009,3.527,1.001    S3.542,0.99,3.55,0.994l0.172,0.099l0.168-0.104C3.9,0.983,3.911,0.985,3.916,0.994S3.918,1.013,3.91,1.018l-0.178,0.11    C3.73,1.129,3.727,1.13,3.723,1.13z" style="fill: rgb(36, 36, 36);"></path></g><g fill="#242424"><path fill="#242424" d="M3.723,1.13c-0.01,0-0.017-0.007-0.018-0.017L3.703,0.956c0-0.01,0.008-0.018,0.018-0.018    c0.01,0,0.018,0.008,0.018,0.017l0.003,0.158C3.741,1.123,3.733,1.13,3.723,1.13C3.724,1.13,3.724,1.13,3.723,1.13z" style="fill: rgb(36, 36, 36);"></path></g><ellipse transform="matrix(0.761 0.6488 -0.6488 0.761 1.9288 -2.3833)" fill="" cx="4.199" cy="1.426" rx="0.061" ry="0.086"></ellipse><g fill="#242424"><path fill="#242424" d="M4.218,1.42c-0.004,0-0.008-0.001-0.011-0.004C4.2,1.41,4.199,1.399,4.205,1.391l0.309-0.359    C4.52,1.024,4.531,1.023,4.538,1.03c0.008,0.006,0.008,0.018,0.002,0.024l-0.309,0.36C4.229,1.418,4.223,1.42,4.218,1.42z" style="fill: rgb(36, 36, 36);"></path></g><g fill="#242424"><path fill="#242424" d="M4.733,1.096c-0.001,0-0.002,0-0.003,0L4.524,1.061C4.518,1.059,4.512,1.055,4.51,1.049L4.444,0.851    C4.44,0.842,4.445,0.832,4.455,0.829C4.464,0.826,4.474,0.831,4.477,0.84L4.54,1.028l0.196,0.034    C4.745,1.063,4.751,1.072,4.75,1.082C4.749,1.09,4.741,1.096,4.733,1.096z" style="fill: rgb(36, 36, 36);"></path></g><g fill="#242424"><path fill="#242424" d="M4.527,1.061c-0.004,0-0.008-0.001-0.011-0.004C4.508,1.05,4.507,1.04,4.514,1.032l0.103-0.12    C4.623,0.905,4.634,0.904,4.641,0.91c0.007,0.006,0.008,0.017,0.002,0.024l-0.103,0.12C4.537,1.059,4.532,1.061,4.527,1.061z" style="fill: rgb(36, 36, 36);"></path></g><g fill="#242424"><ellipse transform="matrix(0.669 0.7433 -0.7433 0.669 2.3428 -0.6287)" fill="" cx="1.877" cy="2.316" rx="0.069" ry="0.097"></ellipse><g fill="#242424"><path fill="#242424" d="M1.902,2.312c-0.005,0-0.011-0.002-0.015-0.006C1.88,2.298,1.881,2.286,1.889,2.278l0.398-0.359     C2.295,1.912,2.308,1.912,2.315,1.92c0.008,0.008,0.007,0.021-0.001,0.028L1.916,2.308C1.912,2.311,1.907,2.312,1.902,2.312z" style="fill: rgb(36, 36, 36);"></path></g><g fill="#242424"><path fill="#242424" d="M2.526,2.023c-0.002,0-0.004,0-0.006-0.001L2.294,1.953C2.288,1.95,2.283,1.945,2.281,1.938L2.235,1.706     C2.232,1.695,2.24,1.685,2.25,1.683C2.261,1.68,2.271,1.687,2.274,1.698l0.044,0.22l0.214,0.066     c0.01,0.003,0.016,0.014,0.013,0.025C2.542,2.018,2.535,2.023,2.526,2.023z" style="fill: rgb(36, 36, 36);"></path></g><g fill="#242424"><path fill="#242424" d="M2.3,1.954c-0.005,0-0.011-0.003-0.015-0.007C2.278,1.939,2.279,1.926,2.287,1.918l0.132-0.119     C2.428,1.792,2.44,1.792,2.448,1.8c0.007,0.008,0.006,0.021-0.002,0.028l-0.132,0.12C2.31,1.952,2.305,1.954,2.3,1.954z" style="fill: rgb(36, 36, 36);"></path></g></g><ellipse transform="matrix(0.2267 0.974 -0.974 0.2267 4.3417 -0.7157)" fill="" cx="2.622" cy="2.376" rx="0.069" ry="0.097"></ellipse><g fill="#242424"><path fill="#242424" d="M2.655,2.389c-0.009,0-0.017-0.006-0.02-0.015C2.633,2.362,2.64,2.352,2.65,2.35l0.522-0.121    c0.01-0.002,0.021,0.004,0.024,0.015c0.002,0.011-0.004,0.021-0.015,0.024L2.659,2.388C2.658,2.388,2.656,2.389,2.655,2.389z" style="fill: rgb(36, 36, 36);"></path></g><g fill="#242424"><path fill="#242424" d="M3.341,2.438c-0.005,0-0.01-0.002-0.014-0.006l-0.164-0.17c-0.005-0.005-0.006-0.013-0.004-0.02    L3.23,2.017C3.233,2.006,3.245,2,3.255,2.003c0.01,0.003,0.016,0.015,0.013,0.025L3.2,2.243l0.155,0.162    c0.008,0.008,0.008,0.021,0,0.028C3.351,2.436,3.346,2.438,3.341,2.438z" style="fill: rgb(36, 36, 36);"></path></g><g fill="#242424"><path fill="#242424" d="M3.177,2.268c-0.009,0-0.018-0.006-0.02-0.016c-0.002-0.01,0.005-0.021,0.015-0.023l0.174-0.041    c0.011-0.002,0.021,0.004,0.024,0.015c0.002,0.01-0.004,0.021-0.015,0.024l-0.174,0.04C3.18,2.268,3.179,2.268,3.177,2.268z" style="fill: rgb(36, 36, 36);"></path></g><g fill="#242424"><ellipse transform="matrix(-0.1027 0.9947 -0.9947 -0.1027 5.1411 1.4203)" fill="" cx="1.93" cy="3.029" rx="0.069" ry="0.097"></ellipse><g fill="#242424"><path fill="#242424" d="M2.498,3.107c-0.001,0-0.002,0-0.002,0L1.962,3.052C1.951,3.051,1.943,3.041,1.944,3.03     C1.945,3.02,1.955,3.011,1.966,3.013l0.533,0.056C2.51,3.069,2.518,3.079,2.517,3.09C2.516,3.1,2.507,3.107,2.498,3.107z" style="fill: rgb(36, 36, 36);"></path></g><g fill="#242424"><path fill="#242424" d="M2.597,3.322c-0.007,0-0.015-0.004-0.018-0.012l-0.1-0.214c-0.003-0.007-0.002-0.015,0.002-0.02     l0.142-0.189C2.629,2.878,2.642,2.876,2.65,2.883C2.659,2.889,2.661,2.902,2.654,2.91L2.52,3.09l0.095,0.204     c0.004,0.01,0,0.022-0.01,0.026C2.602,3.322,2.599,3.322,2.597,3.322z" style="fill: rgb(36, 36, 36);"></path></g><g fill="#242424"><path fill="#242424" d="M2.675,3.126c-0.001,0-0.002,0-0.002,0L2.495,3.107C2.484,3.106,2.477,3.097,2.478,3.086     s0.011-0.019,0.021-0.018l0.178,0.018c0.011,0.001,0.019,0.011,0.018,0.022C2.694,3.119,2.685,3.126,2.675,3.126z" style="fill: rgb(36, 36, 36);"></path></g></g><g fill="#242424"><ellipse transform="matrix(-0.4977 0.8674 -0.8674 -0.4977 5.5769 3.1882)" fill="" cx="1.865" cy="3.209" rx="0.069" ry="0.097"></ellipse><g fill="#242424"><path fill="#242424" d="M2.359,3.514c-0.003,0-0.006-0.001-0.01-0.002L1.885,3.243C1.875,3.238,1.872,3.226,1.878,3.216     c0.005-0.01,0.018-0.013,0.027-0.007l0.464,0.268c0.01,0.006,0.013,0.018,0.007,0.027C2.373,3.51,2.366,3.514,2.359,3.514z" style="fill: rgb(36, 36, 36);"></path></g><g fill="#242424"><path fill="#242424" d="M2.363,3.75c-0.011,0-0.02-0.009-0.02-0.02L2.339,3.494c0-0.007,0.004-0.014,0.01-0.018l0.206-0.116     c0.01-0.005,0.022-0.002,0.027,0.008c0.006,0.01,0.002,0.021-0.007,0.027L2.379,3.505L2.382,3.73     C2.383,3.741,2.374,3.75,2.363,3.75L2.363,3.75z" style="fill: rgb(36, 36, 36);"></path></g><g fill="#242424"><path fill="#242424" d="M2.514,3.603c-0.003,0-0.007-0.001-0.01-0.003L2.35,3.511C2.34,3.506,2.337,3.494,2.342,3.484     c0.006-0.01,0.018-0.013,0.027-0.007l0.155,0.089c0.009,0.005,0.012,0.018,0.007,0.027C2.528,3.599,2.521,3.603,2.514,3.603z" style="fill: rgb(36, 36, 36);"></path></g></g><g fill="#242424"><ellipse transform="matrix(-0.8084 0.5886 -0.5886 -0.8084 5.104 5.0331)" fill="" cx="1.733" cy="3.347" rx="0.069" ry="0.097"></ellipse><g fill="#242424"><path fill="#242424" d="M2.068,3.829c-0.006,0-0.012-0.003-0.016-0.008L1.737,3.387C1.73,3.378,1.732,3.365,1.741,3.359     C1.75,3.352,1.762,3.354,1.769,3.363l0.315,0.434C2.09,3.806,2.088,3.818,2.08,3.824C2.077,3.827,2.072,3.829,2.068,3.829z" style="fill: rgb(36, 36, 36);"></path></g><g fill="#242424"><path fill="#242424" d="M1.975,4.045c-0.003,0-0.005,0-0.008-0.001C1.957,4.04,1.953,4.028,1.957,4.018L2.05,3.8     c0.002-0.006,0.009-0.011,0.016-0.012l0.235-0.021c0.011-0.001,0.021,0.007,0.021,0.018c0,0.011-0.007,0.021-0.018,0.021     L2.082,3.827L1.993,4.034C1.99,4.041,1.983,4.045,1.975,4.045z" style="fill: rgb(36, 36, 36);"></path></g><g fill="#242424"><path fill="#242424" d="M2.173,3.973c-0.006,0-0.013-0.003-0.016-0.008L2.052,3.82C2.046,3.812,2.047,3.799,2.056,3.792     c0.009-0.007,0.021-0.004,0.028,0.004l0.105,0.145C2.196,3.95,2.194,3.963,2.185,3.969C2.181,3.972,2.177,3.973,2.173,3.973z" style="fill: rgb(36, 36, 36);"></path></g></g><g fill="#242424"><ellipse transform="matrix(-0.9779 0.209 -0.209 -0.9779 3.7909 6.4387)" fill="" cx="1.555" cy="3.42" rx="0.069" ry="0.097"></ellipse><g fill="#242424"><path fill="#242424" d="M1.674,3.998c-0.009,0-0.018-0.007-0.02-0.016L1.543,3.457C1.541,3.446,1.547,3.436,1.558,3.434     C1.569,3.431,1.58,3.438,1.582,3.449l0.112,0.524c0.002,0.011-0.004,0.021-0.015,0.023C1.677,3.997,1.675,3.998,1.674,3.998z" style="fill: rgb(36, 36, 36);"></path></g><g fill="#242424"><path fill="#242424" d="M1.5,4.158c-0.005,0-0.01-0.002-0.014-0.006C1.479,4.144,1.479,4.131,1.487,4.124l0.173-0.161     c0.005-0.005,0.013-0.006,0.02-0.004l0.224,0.076C1.915,4.038,1.92,4.049,1.917,4.06C1.913,4.07,1.902,4.076,1.891,4.072L1.679,4     L1.514,4.152C1.51,4.156,1.505,4.158,1.5,4.158z" style="fill: rgb(36, 36, 36);"></path></g><g fill="#242424"><path fill="#242424" d="M1.711,4.172c-0.009,0-0.018-0.007-0.02-0.016L1.654,3.981C1.652,3.971,1.659,3.96,1.67,3.958     s0.021,0.004,0.023,0.015L1.73,4.148c0.002,0.011-0.004,0.021-0.015,0.023C1.714,4.172,1.712,4.172,1.711,4.172z" style="fill: rgb(36, 36, 36);"></path></g></g><g fill="#242424"><ellipse transform="matrix(-0.9773 -0.2117 0.2117 -0.9773 1.9745 7.0385)" fill="" cx="1.364" cy="3.414" rx="0.069" ry="0.097"></ellipse><g fill="#242424"><path fill="#242424" d="M1.246,3.991c-0.002,0-0.003,0-0.004,0C1.23,3.988,1.224,3.978,1.226,3.967l0.111-0.524     C1.34,3.432,1.351,3.425,1.361,3.427C1.372,3.43,1.378,3.44,1.376,3.451L1.265,3.975C1.263,3.985,1.254,3.991,1.246,3.991z" style="fill: rgb(36, 36, 36);"></path></g><g fill="#242424"><path fill="#242424" d="M1.418,4.152c-0.004,0-0.01-0.002-0.013-0.005L1.241,3.994L1.028,4.066     C1.018,4.07,1.006,4.064,1.003,4.054C1,4.043,1.005,4.032,1.016,4.028l0.223-0.076c0.007-0.002,0.015-0.001,0.02,0.004     l0.173,0.16c0.008,0.007,0.009,0.02,0.001,0.028C1.429,4.15,1.424,4.152,1.418,4.152z" style="fill: rgb(36, 36, 36);"></path></g><g fill="#242424"><path fill="#242424" d="M1.208,4.166c-0.001,0-0.003,0-0.004,0C1.193,4.163,1.187,4.153,1.188,4.142l0.038-0.175     C1.228,3.957,1.239,3.95,1.25,3.952C1.26,3.955,1.267,3.965,1.265,3.975L1.228,4.15C1.226,4.16,1.217,4.166,1.208,4.166z" style="fill: rgb(36, 36, 36);"></path></g></g><g fill="#242424"><ellipse transform="matrix(-0.8097 -0.5869 0.5869 -0.8097 0.202 6.7257)" fill="" cx="1.192" cy="3.33" rx="0.069" ry="0.097"></ellipse><g fill="#242424"><path fill="#242424" d="M0.856,3.811c-0.003,0-0.008-0.001-0.012-0.004C0.835,3.801,0.833,3.789,0.84,3.78l0.315-0.434     c0.006-0.009,0.019-0.011,0.027-0.004C1.192,3.348,1.194,3.361,1.188,3.37L0.873,3.803C0.868,3.809,0.862,3.811,0.856,3.811z" style="fill: rgb(36, 36, 36);"></path></g><g fill="#242424"><path fill="#242424" d="M0.949,4.028c-0.008,0-0.015-0.004-0.018-0.012L0.843,3.81L0.619,3.79C0.608,3.789,0.6,3.779,0.601,3.768     S0.612,3.749,0.623,3.75l0.235,0.022c0.007,0,0.014,0.005,0.017,0.011l0.093,0.218c0.005,0.01,0,0.021-0.01,0.026     C0.955,4.028,0.952,4.028,0.949,4.028z" style="fill: rgb(36, 36, 36);"></path></g><g fill="#242424"><path fill="#242424" d="M0.751,3.956c-0.004,0-0.008-0.001-0.011-0.004C0.731,3.946,0.729,3.933,0.735,3.924L0.84,3.78     c0.006-0.009,0.019-0.011,0.027-0.004s0.011,0.019,0.005,0.028L0.767,3.948C0.763,3.953,0.757,3.956,0.751,3.956z" style="fill: rgb(36, 36, 36);"></path></g></g><g fill="#242424"><ellipse transform="matrix(-0.4988 -0.8667 0.8667 -0.4988 -1.1586 5.6977)" fill="" cx="1.068" cy="3.184" rx="0.069" ry="0.097"></ellipse><g fill="#242424"><path fill="#242424" d="M0.574,3.488c-0.007,0-0.013-0.003-0.017-0.01c-0.005-0.01-0.002-0.022,0.007-0.027l0.465-0.268     C1.038,3.178,1.05,3.181,1.056,3.191c0.006,0.01,0.002,0.021-0.007,0.027L0.584,3.486C0.581,3.487,0.577,3.488,0.574,3.488z" style="fill: rgb(36, 36, 36);"></path></g><g fill="#242424"><path fill="#242424" d="M0.571,3.725L0.571,3.725c-0.012,0-0.021-0.009-0.02-0.021L0.554,3.48L0.358,3.371     C0.349,3.365,0.345,3.353,0.351,3.343c0.005-0.009,0.018-0.013,0.027-0.007l0.207,0.115c0.006,0.003,0.01,0.01,0.01,0.018     L0.59,3.705C0.59,3.716,0.582,3.725,0.571,3.725z" style="fill: rgb(36, 36, 36);"></path></g><g fill="#242424"><path fill="#242424" d="M0.419,3.578c-0.006,0-0.013-0.003-0.017-0.01C0.396,3.559,0.4,3.546,0.409,3.541l0.155-0.09     c0.01-0.005,0.021-0.002,0.027,0.008C0.596,3.468,0.593,3.48,0.584,3.486L0.429,3.575C0.426,3.577,0.422,3.578,0.419,3.578z" style="fill: rgb(36, 36, 36);"></path></g></g><g fill="#242424"><ellipse transform="matrix(-0.1027 -0.9947 0.9947 -0.1027 -1.8648 4.3172)" fill="" cx="1.015" cy="3" rx="0.069" ry="0.097"></ellipse><g fill="#242424"><path fill="#242424" d="M0.448,3.079c-0.01,0-0.019-0.007-0.02-0.018C0.427,3.05,0.435,3.041,0.445,3.039l0.533-0.056     C0.99,2.982,1,2.991,1.001,3.001c0,0.011-0.007,0.021-0.018,0.021L0.45,3.079C0.449,3.079,0.448,3.079,0.448,3.079z" style="fill: rgb(36, 36, 36);"></path></g><g fill="#242424"><path fill="#242424" d="M0.349,3.293c-0.003,0-0.005-0.001-0.008-0.002c-0.01-0.004-0.015-0.016-0.01-0.026l0.094-0.204     l-0.134-0.18C0.284,2.873,0.286,2.86,0.294,2.854c0.009-0.007,0.021-0.005,0.028,0.003l0.141,0.189     c0.004,0.006,0.005,0.014,0.002,0.021L0.367,3.282C0.363,3.289,0.356,3.293,0.349,3.293z" style="fill: rgb(36, 36, 36);"></path></g><g fill="#242424"><path fill="#242424" d="M0.27,3.097c-0.01,0-0.019-0.008-0.02-0.018C0.249,3.068,0.257,3.059,0.268,3.058l0.178-0.019     c0.011-0.001,0.021,0.007,0.022,0.018C0.468,3.067,0.46,3.078,0.45,3.079L0.272,3.097C0.271,3.097,0.27,3.097,0.27,3.097z" style="fill: rgb(36, 36, 36);"></path></g></g><g fill="#242424"><ellipse transform="matrix(0.3088 -0.9511 0.9511 0.3088 -1.9533 2.9323)" fill="" cx="1.041" cy="2.81" rx="0.069" ry="0.097"></ellipse><g fill="#242424"><path fill="#242424" d="M1.009,2.819c-0.002,0-0.004,0-0.006,0l-0.51-0.166C0.482,2.648,0.477,2.638,0.48,2.627     c0.003-0.01,0.015-0.016,0.025-0.013l0.51,0.167c0.01,0.003,0.016,0.015,0.013,0.025C1.025,2.814,1.017,2.819,1.009,2.819z" style="fill: rgb(36, 36, 36);"></path></g><g fill="#242424"><path fill="#242424" d="M0.321,2.809c-0.005,0-0.011-0.002-0.015-0.007C0.299,2.793,0.299,2.781,0.308,2.774l0.169-0.148     l-0.05-0.219c-0.002-0.01,0.004-0.021,0.015-0.024s0.021,0.004,0.023,0.015l0.052,0.23c0.002,0.007,0,0.015-0.006,0.019     L0.334,2.804C0.331,2.807,0.326,2.809,0.321,2.809z" style="fill: rgb(36, 36, 36);"></path></g><g fill="#242424"><path fill="#242424" d="M0.499,2.653c-0.002,0-0.004,0-0.006,0l-0.17-0.056C0.312,2.593,0.307,2.582,0.31,2.572     c0.003-0.011,0.015-0.016,0.025-0.013l0.17,0.055c0.01,0.003,0.016,0.015,0.013,0.025C0.515,2.647,0.507,2.653,0.499,2.653z" style="fill: rgb(36, 36, 36);"></path></g></g><g fill="#242424"><ellipse transform="matrix(0.669 -0.7433 0.7433 0.669 -1.5897 1.7255)" fill="" cx="1.142" cy="2.647" rx="0.069" ry="0.097"></ellipse><g fill="#242424"><path fill="#242424" d="M1.117,2.644c-0.005,0-0.009-0.001-0.013-0.005L0.706,2.28C0.698,2.272,0.697,2.26,0.705,2.252     c0.007-0.008,0.02-0.009,0.028-0.001L1.13,2.61c0.008,0.007,0.009,0.02,0.002,0.028C1.127,2.642,1.123,2.644,1.117,2.644z" style="fill: rgb(36, 36, 36);"></path></g><g fill="#242424"><path fill="#242424" d="M0.493,2.355c-0.008,0-0.016-0.005-0.019-0.014C0.471,2.33,0.477,2.319,0.487,2.316L0.702,2.25     l0.044-0.22c0.002-0.011,0.013-0.018,0.023-0.016s0.018,0.013,0.016,0.023L0.738,2.269C0.737,2.276,0.732,2.282,0.725,2.284     l-0.226,0.07C0.497,2.354,0.495,2.355,0.493,2.355z" style="fill: rgb(36, 36, 36);"></path></g><g fill="#242424"><path fill="#242424" d="M0.719,2.285c-0.005,0-0.01-0.002-0.014-0.005L0.573,2.16C0.565,2.153,0.564,2.14,0.571,2.132     c0.007-0.008,0.02-0.009,0.028-0.001l0.133,0.12c0.008,0.007,0.009,0.02,0.001,0.028C0.73,2.283,0.724,2.285,0.719,2.285z" style="fill: rgb(36, 36, 36);"></path></g></g><g fill="#242424"><ellipse transform="matrix(0.9134 -0.4071 0.4071 0.9134 -0.9215 0.7496)" fill="" cx="1.301" cy="2.54" rx="0.069" ry="0.097"></ellipse><g fill="#242424"><path fill="#242424" d="M1.287,2.529c-0.007,0-0.015-0.004-0.018-0.012l-0.218-0.49c-0.004-0.01,0-0.022,0.01-0.026     s0.022,0,0.026,0.01l0.217,0.49c0.004,0.01,0,0.021-0.01,0.026C1.292,2.528,1.29,2.529,1.287,2.529z" style="fill: rgb(36, 36, 36);"></path></g><g fill="#242424"><path fill="#242424" d="M1.07,2.039c-0.001,0-0.002,0-0.002,0L0.833,2.01C0.822,2.009,0.814,1.999,0.815,1.988     c0.001-0.011,0.011-0.019,0.022-0.017L1.06,1.998l0.13-0.183C1.197,1.805,1.208,1.803,1.218,1.81     c0.009,0.006,0.011,0.019,0.005,0.028L1.085,2.03C1.082,2.036,1.076,2.039,1.07,2.039z" style="fill: rgb(36, 36, 36);"></path></g><g fill="#242424"><path fill="#242424" d="M1.07,2.039c-0.008,0-0.015-0.004-0.019-0.012L0.979,1.863c-0.004-0.01,0-0.022,0.01-0.026     c0.01-0.005,0.021,0,0.026,0.01l0.072,0.164c0.004,0.01,0,0.022-0.01,0.026C1.075,2.038,1.072,2.039,1.07,2.039z" style="fill: rgb(36, 36, 36);"></path></g></g></g></g></svg>